<?xml version="1.0" encoding="utf-8"?>
<!-- Generator: Adobe Illustrator 27.5.0, SVG Export Plug-In . SVG Version: 6.00 Build 0)  -->
<svg viewBox="0 0 1440 320" xmlns="http://www.w3.org/2000/svg">
  <path fill="#0099ff" fill-opacity="1" d="M0,160L48,170.7C96,181,192,203,288,192C384,181,480,139,576,117.3C672,96,768,96,864,112C960,128,1056,160,1152,165.3C1248,171,1344,149,1392,138.7L1440,128L1440,320L1392,320C1344,320,1248,320,1152,320C1056,320,960,320,864,320C768,320,672,320,576,320C480,320,384,320,288,320C192,320,96,320,48,320L0,320Z"></path>
</svg>