<?xml version="1.0" encoding="utf-8"?>
<!-- Generator: Adobe Illustrator 27.5.0, SVG Export Plug-In . SVG Version: 6.00 Build 0)  -->
<svg viewBox="0 0 1440 320" xmlns="http://www.w3.org/2000/svg">
  <path fill="#ff0000" fill-opacity="0.7" d="M0,64L48,85.3C96,107,192,149,288,154.7C384,160,480,128,576,112C672,96,768,96,864,101.3C960,107,1056,117,1152,122.7C1248,128,1344,128,1392,128L1440,128L1440,320L1392,320C1344,320,1248,320,1152,320C1056,320,960,320,864,320C768,320,672,320,576,320C480,320,384,320,288,320C192,320,96,320,48,320L0,320Z"></path>
</svg>